<?xml version="1.0" standalone="yes"?>
<!--
   Licensed to the Apache Software Foundation (ASF) under one or more
   contributor license agreements.  See the NOTICE file distributed with
   this work for additional information regarding copyright ownership.
   The ASF licenses this file to You under the Apache License, Version 2.0
   (the "License"); you may not use this file except in compliance with
   the License.  You may obtain a copy of the License at

       http://www.apache.org/licenses/LICENSE-2.0

   Unless required by applicable law or agreed to in writing, software
   distributed under the License is distributed on an "AS IS" BASIS,
   WITHOUT WARRANTIES OR CONDITIONS OF ANY KIND, either express or implied.
   See the License for the specific language governing permissions and
   limitations under the License.
  -->

<svg version="1.1" viewBox="0.0 0.0 837.0 412.0" fill="none" stroke="none" stroke-linecap="square" stroke-miterlimit="10" xmlns="http://www.w3.org/2000/svg" xmlns:xlink="http://www.w3.org/1999/xlink"><clipPath id="p.0"><path d="m0 0l837.0 0l0 412.0l-837.0 0l0 -412.0z" clip-rule="nonzero"></path></clipPath><g clip-path="url(#p.0)"><path fill="#000000" fill-opacity="0.0" d="m0 0l837.0 0l0 412.0l-837.0 0z" fill-rule="nonzero"></path><path fill="#cfe2f3" d="m195.39037 22.098858l259.48157 0l0 66.09279l-259.48157 0z" fill-rule="nonzero"></path><path stroke="#000000" stroke-width="2.0" stroke-linejoin="round" stroke-linecap="butt" d="m195.39037 22.098858l259.48157 0l0 66.09279l-259.48157 0z" fill-rule="nonzero"></path><path fill="#000000" d="m271.49054 61.005257l-1.390625 0l0 -4.6875l-4.28125 0l0 4.6875l-1.390625 0l0 -10.21875l1.390625 0l0 4.328125l4.28125 0l0 -4.328125l1.390625 0l0 10.21875zm8.234375 0l-5.796875 0l0 -10.21875l5.796875 0l0 1.171875l-4.40625 0l0 3.171875l4.234375 0l0 1.171875l-4.234375 0l0 3.515625l4.40625 0l0 1.1875zm10.140625 0l-1.515625 0l-0.703125 -2.234375l-4.25 0l-0.71875 2.234375l-1.453125 0l3.390625 -10.21875l1.90625 0l3.34375 10.21875zm-2.625 -3.46875l-1.71875 -5.46875l-1.734375 5.46875l3.453125 0zm10.9375 -1.75q0 0.734375 -0.125 1.40625q-0.109375 0.671875 -0.359375 1.25q-0.25 0.578125 -0.65625 1.046875q-0.390625 0.46875 -0.96875 0.8125q-0.578125 0.328125 -1.34375 0.515625q-0.765625 0.1875 -1.734375 0.1875l-2.1875 0l0 -10.21875l2.625 0q2.390625 0 3.5625 1.234375q1.1875 1.234375 1.1875 3.765625zm-1.46875 0.09375q0 -1.078125 -0.203125 -1.828125q-0.203125 -0.75 -0.625 -1.203125q-0.40625 -0.46875 -1.03125 -0.671875q-0.625 -0.21875 -1.46875 -0.21875l-1.1875 0l0 7.84375l1.03125 0q3.484375 0 3.484375 -3.921875zm9.40625 5.125l-5.796875 0l0 -10.21875l5.796875 0l0 1.171875l-4.40625 0l0 3.171875l4.234375 0l0 1.171875l-4.234375 0l0 3.515625l4.40625 0l0 1.1875zm9.640625 0l-1.578125 0l-1.515625 -3.265625q-0.171875 -0.375 -0.359375 -0.625q-0.171875 -0.25 -0.390625 -0.390625q-0.203125 -0.140625 -0.453125 -0.203125q-0.234375 -0.0625 -0.546875 -0.0625l-0.65625 0l0 4.546875l-1.390625 0l0 -10.21875l2.734375 0q0.890625 0 1.53125 0.203125q0.640625 0.1875 1.046875 0.546875q0.421875 0.34375 0.609375 0.84375q0.1875 0.5 0.1875 1.09375q0 0.484375 -0.140625 0.90625q-0.140625 0.421875 -0.421875 0.78125q-0.265625 0.34375 -0.6875 0.59375q-0.40625 0.25 -0.9375 0.375q0.4375 0.15625 0.734375 0.53125q0.296875 0.359375 0.609375 0.984375l1.625 3.359375zm-2.234375 -7.40625q0 -0.828125 -0.515625 -1.234375q-0.5 -0.40625 -1.4375 -0.40625l-1.3125 0l0 3.375l1.125 0q0.5 0 0.890625 -0.109375q0.390625 -0.109375 0.671875 -0.328125q0.28125 -0.234375 0.421875 -0.546875q0.15625 -0.328125 0.15625 -0.75zm19.40625 4.640625q0 0.71875 -0.296875 1.265625q-0.296875 0.546875 -0.828125 0.921875q-0.53125 0.359375 -1.28125 0.546875q-0.75 0.171875 -1.640625 0.171875q-0.40625 0 -0.8125 -0.03125q-0.40625 -0.03125 -0.78125 -0.078125q-0.359375 -0.046875 -0.6875 -0.109375q-0.328125 -0.0625 -0.59375 -0.140625l0 -1.34375q0.578125 0.21875 1.3125 0.34375q0.734375 0.125 1.65625 0.125q0.671875 0 1.140625 -0.09375q0.484375 -0.109375 0.78125 -0.3125q0.296875 -0.21875 0.4375 -0.515625q0.140625 -0.296875 0.140625 -0.671875q0 -0.421875 -0.234375 -0.703125q-0.234375 -0.296875 -0.609375 -0.53125q-0.375 -0.234375 -0.859375 -0.421875q-0.46875 -0.1875 -0.96875 -0.390625q-0.5 -0.203125 -0.984375 -0.4375q-0.484375 -0.25 -0.859375 -0.5625q-0.375 -0.328125 -0.609375 -0.765625q-0.21875 -0.4375 -0.21875 -1.046875q0 -0.515625 0.21875 -1.015625q0.21875 -0.515625 0.671875 -0.90625q0.46875 -0.40625 1.1875 -0.640625q0.71875 -0.25 1.71875 -0.25q0.265625 0 0.5625 0.03125q0.296875 0.015625 0.609375 0.0625q0.3125 0.046875 0.609375 0.109375q0.296875 0.046875 0.5625 0.109375l0 1.25q-0.609375 -0.171875 -1.21875 -0.265625q-0.59375 -0.09375 -1.15625 -0.09375q-1.1875 0 -1.75 0.40625q-0.5625 0.390625 -0.5625 1.0625q0 0.421875 0.21875 0.71875q0.234375 0.296875 0.609375 0.53125q0.375 0.234375 0.859375 0.421875q0.484375 0.1875 0.984375 0.390625q0.5 0.203125 0.96875 0.453125q0.484375 0.234375 0.859375 0.578125q0.375 0.328125 0.609375 0.78125q0.234375 0.4375 0.234375 1.046875zm8.375 2.765625l-5.796875 0l0 -10.21875l5.796875 0l0 1.171875l-4.40625 0l0 3.171875l4.234375 0l0 1.171875l-4.234375 0l0 3.515625l4.40625 0l0 1.1875zm9.203125 -0.390625q-1.234375 0.515625 -2.578125 0.515625q-2.15625 0 -3.328125 -1.296875q-1.15625 -1.296875 -1.15625 -3.828125q0 -1.21875 0.3125 -2.203125q0.328125 -1.0 0.921875 -1.6875q0.59375 -0.703125 1.4375 -1.078125q0.84375 -0.375 1.890625 -0.375q0.71875 0 1.328125 0.125q0.609375 0.125 1.171875 0.375l0 1.359375q-0.5625 -0.296875 -1.15625 -0.453125q-0.59375 -0.171875 -1.296875 -0.171875q-0.71875 0 -1.296875 0.28125q-0.578125 0.265625 -0.984375 0.78125q-0.40625 0.5 -0.625 1.25q-0.21875 0.734375 -0.21875 1.671875q0 1.984375 0.796875 3.0q0.8125 1.0 2.359375 1.0q0.65625 0 1.25 -0.140625q0.609375 -0.15625 1.171875 -0.4375l0 1.3125zm9.140625 -8.640625l-3.015625 0l0 9.03125l-1.40625 0l0 -9.03125l-3.03125 0l0 -1.1875l7.453125 0l0 1.1875zm4.375 -0.015625l-2.359375 0l0 -1.171875l6.109375 0l0 1.171875l-2.34375 0l0 7.859375l2.34375 0l0 1.1875l-6.109375 0l0 -1.1875l2.359375 0l0 -7.859375zm13.46875 3.875q0 1.375 -0.328125 2.375q-0.328125 1.0 -0.875 1.65625q-0.546875 0.640625 -1.296875 0.96875q-0.734375 0.3125 -1.546875 0.3125q-0.984375 0 -1.71875 -0.359375q-0.734375 -0.359375 -1.21875 -1.03125q-0.46875 -0.671875 -0.703125 -1.625q-0.234375 -0.96875 -0.234375 -2.1875q0 -1.359375 0.3125 -2.359375q0.328125 -1.0 0.875 -1.640625q0.546875 -0.65625 1.28125 -0.96875q0.734375 -0.328125 1.5625 -0.328125q0.984375 0 1.703125 0.359375q0.734375 0.359375 1.21875 1.03125q0.484375 0.671875 0.71875 1.640625q0.25 0.953125 0.25 2.15625zm-1.453125 0.09375q0 -0.890625 -0.140625 -1.640625q-0.125 -0.75 -0.4375 -1.28125q-0.296875 -0.546875 -0.78125 -0.84375q-0.484375 -0.296875 -1.15625 -0.296875q-0.65625 0 -1.140625 0.328125q-0.46875 0.3125 -0.78125 0.859375q-0.296875 0.53125 -0.453125 1.265625q-0.140625 0.734375 -0.140625 1.546875q0 0.90625 0.140625 1.65625q0.140625 0.75 0.4375 1.28125q0.3125 0.53125 0.78125 0.828125q0.484375 0.296875 1.15625 0.296875q0.65625 0 1.125 -0.3125q0.484375 -0.3125 0.78125 -0.859375q0.3125 -0.546875 0.453125 -1.265625q0.15625 -0.734375 0.15625 -1.5625zm9.75 5.078125l-1.8125 0l-2.96875 -6.375l-0.859375 -2.046875l0 5.15625l0 3.265625l-1.296875 0l0 -10.21875l1.78125 0l2.84375 6.03125l1.015625 2.34375l0 -5.46875l0 -2.90625l1.296875 0l0 10.21875z" fill-rule="nonzero"></path><path fill="#f4cccc" d="m195.39037 88.19166l259.48157 0l0 301.71103l-259.48157 0z" fill-rule="nonzero"></path><path stroke="#000000" stroke-width="2.0" stroke-linejoin="round" stroke-linecap="butt" d="m195.39037 88.19166l259.48157 0l0 301.71103l-259.48157 0z" fill-rule="nonzero"></path><path fill="#000000" d="m280.5843 239.68842q0 0.734375 -0.125 1.40625q-0.109375 0.671875 -0.359375 1.25q-0.25 0.578125 -0.65625 1.046875q-0.390625 0.46875 -0.96875 0.8125q-0.578125 0.328125 -1.34375 0.515625q-0.765625 0.1875 -1.734375 0.1875l-2.1875 0l0 -10.21875l2.625 0q2.390625 0 3.5625 1.234375q1.1875 1.234375 1.1875 3.765625zm-1.46875 0.09375q0 -1.078125 -0.203125 -1.828125q-0.203125 -0.75 -0.625 -1.203125q-0.40625 -0.46875 -1.03125 -0.671875q-0.625 -0.21875 -1.46875 -0.21875l-1.1875 0l0 7.84375l1.03125 0q3.484375 0 3.484375 -3.921875zm10.75 5.125l-1.515625 0l-0.703125 -2.234375l-4.25 0l-0.71875 2.234375l-1.453125 0l3.390625 -10.21875l1.90625 0l3.34375 10.21875zm-2.625 -3.46875l-1.71875 -5.46875l-1.734375 5.46875l3.453125 0zm10.828125 -5.5625l-3.015625 0l0 9.03125l-1.40625 0l0 -9.03125l-3.03125 0l0 -1.1875l7.453125 0l0 1.1875zm9.390625 9.03125l-1.515625 0l-0.703125 -2.234375l-4.25 0l-0.71875 2.234375l-1.453125 0l3.390625 -10.21875l1.90625 0l3.34375 10.21875zm-2.625 -3.46875l-1.71875 -5.46875l-1.734375 5.46875l3.453125 0zm19.296875 0.703125q0 0.71875 -0.296875 1.265625q-0.296875 0.546875 -0.828125 0.921875q-0.53125 0.359375 -1.28125 0.546875q-0.75 0.171875 -1.640625 0.171875q-0.40625 0 -0.8125 -0.03125q-0.40625 -0.03125 -0.78125 -0.078125q-0.359375 -0.046875 -0.6875 -0.109375q-0.328125 -0.0625 -0.59375 -0.140625l0 -1.34375q0.578125 0.21875 1.3125 0.34375q0.734375 0.125 1.65625 0.125q0.671875 0 1.140625 -0.09375q0.484375 -0.109375 0.78125 -0.3125q0.296875 -0.21875 0.4375 -0.515625q0.140625 -0.296875 0.140625 -0.671875q0 -0.421875 -0.234375 -0.703125q-0.234375 -0.296875 -0.609375 -0.53125q-0.375 -0.234375 -0.859375 -0.421875q-0.46875 -0.1875 -0.96875 -0.390625q-0.5 -0.203125 -0.984375 -0.4375q-0.484375 -0.25 -0.859375 -0.5625q-0.375 -0.328125 -0.609375 -0.765625q-0.21875 -0.4375 -0.21875 -1.046875q0 -0.515625 0.21875 -1.015625q0.21875 -0.515625 0.671875 -0.90625q0.46875 -0.40625 1.1875 -0.640625q0.71875 -0.25 1.71875 -0.25q0.265625 0 0.5625 0.03125q0.296875 0.015625 0.609375 0.0625q0.3125 0.046875 0.609375 0.109375q0.296875 0.046875 0.5625 0.109375l0 1.25q-0.609375 -0.171875 -1.21875 -0.265625q-0.59375 -0.09375 -1.15625 -0.09375q-1.1875 0 -1.75 0.40625q-0.5625 0.390625 -0.5625 1.0625q0 0.421875 0.21875 0.71875q0.234375 0.296875 0.609375 0.53125q0.375 0.234375 0.859375 0.421875q0.484375 0.1875 0.984375 0.390625q0.5 0.203125 0.96875 0.453125q0.484375 0.234375 0.859375 0.578125q0.375 0.328125 0.609375 0.78125q0.234375 0.4375 0.234375 1.046875zm8.375 2.765625l-5.796875 0l0 -10.21875l5.796875 0l0 1.171875l-4.40625 0l0 3.171875l4.234375 0l0 1.171875l-4.234375 0l0 3.515625l4.40625 0l0 1.1875zm9.203125 -0.390625q-1.234375 0.515625 -2.578125 0.515625q-2.15625 0 -3.328125 -1.296875q-1.15625 -1.296875 -1.15625 -3.828125q0 -1.21875 0.3125 -2.203125q0.328125 -1.0 0.921875 -1.6875q0.59375 -0.703125 1.4375 -1.078125q0.84375 -0.375 1.890625 -0.375q0.71875 0 1.328125 0.125q0.609375 0.125 1.171875 0.375l0 1.359375q-0.5625 -0.296875 -1.15625 -0.453125q-0.59375 -0.171875 -1.296875 -0.171875q-0.71875 0 -1.296875 0.28125q-0.578125 0.265625 -0.984375 0.78125q-0.40625 0.5 -0.625 1.25q-0.21875 0.734375 -0.21875 1.671875q0 1.984375 0.796875 3.0q0.8125 1.0 2.359375 1.0q0.65625 0 1.25 -0.140625q0.609375 -0.15625 1.171875 -0.4375l0 1.3125zm9.140625 -8.640625l-3.015625 0l0 9.03125l-1.40625 0l0 -9.03125l-3.03125 0l0 -1.1875l7.453125 0l0 1.1875zm4.375 -0.015625l-2.359375 0l0 -1.171875l6.109375 0l0 1.171875l-2.34375 0l0 7.859375l2.34375 0l0 1.1875l-6.109375 0l0 -1.1875l2.359375 0l0 -7.859375zm13.46875 3.875q0 1.375 -0.328125 2.375q-0.328125 1.0 -0.875 1.65625q-0.546875 0.640625 -1.296875 0.96875q-0.734375 0.3125 -1.546875 0.3125q-0.984375 0 -1.71875 -0.359375q-0.734375 -0.359375 -1.21875 -1.03125q-0.46875 -0.671875 -0.703125 -1.625q-0.234375 -0.96875 -0.234375 -2.1875q0 -1.359375 0.3125 -2.359375q0.328125 -1.0 0.875 -1.640625q0.546875 -0.65625 1.28125 -0.96875q0.734375 -0.328125 1.5625 -0.328125q0.984375 0 1.703125 0.359375q0.734375 0.359375 1.21875 1.03125q0.484375 0.671875 0.71875 1.640625q0.25 0.953125 0.25 2.15625zm-1.453125 0.09375q0 -0.890625 -0.140625 -1.640625q-0.125 -0.75 -0.4375 -1.28125q-0.296875 -0.546875 -0.78125 -0.84375q-0.484375 -0.296875 -1.15625 -0.296875q-0.65625 0 -1.140625 0.328125q-0.46875 0.3125 -0.78125 0.859375q-0.296875 0.53125 -0.453125 1.265625q-0.140625 0.734375 -0.140625 1.546875q0 0.90625 0.140625 1.65625q0.140625 0.75 0.4375 1.28125q0.3125 0.53125 0.78125 0.828125q0.484375 0.296875 1.15625 0.296875q0.65625 0 1.125 -0.3125q0.484375 -0.3125 0.78125 -0.859375q0.3125 -0.546875 0.453125 -1.265625q0.15625 -0.734375 0.15625 -1.5625zm9.75 5.078125l-1.8125 0l-2.96875 -6.375l-0.859375 -2.046875l0 5.15625l0 3.265625l-1.296875 0l0 -10.21875l1.78125 0l2.84375 6.03125l1.015625 2.34375l0 -5.46875l0 -2.90625l1.296875 0l0 10.21875z" fill-rule="nonzero"></path><path fill="#000000" fill-opacity="0.0" d="m172.25581 389.90268c-13.082474 0 -23.687912 -1.7675171 -23.687912 -3.9478455l0 -176.00624c0 -2.1803284 -10.605438 -3.9478302 -23.687912 -3.9478302l0 0c13.082474 0 23.687912 -1.7675018 23.687912 -3.9478302l0 -176.00624l0 0c0 -2.1803246 10.605438 -3.9478283 23.687912 -3.9478283z" fill-rule="nonzero"></path><path fill="#000000" fill-opacity="0.0" d="m172.25581 389.90268c-13.082474 0 -23.687912 -1.7675171 -23.687912 -3.9478455l0 -176.00624c0 -2.1803284 -10.605438 -3.9478302 -23.687912 -3.9478302l0 0c13.082474 0 23.687912 -1.7675018 23.687912 -3.9478302l0 -176.00624l0 0c0 -2.1803246 10.605438 -3.9478283 23.687912 -3.9478283" fill-rule="nonzero"></path><path stroke="#000000" stroke-width="2.0" stroke-linejoin="round" stroke-linecap="butt" d="m172.25581 389.90268c-13.082474 0 -23.687912 -1.7675171 -23.687912 -3.9478455l0 -176.00624c0 -2.1803284 -10.605438 -3.9478302 -23.687912 -3.9478302l0 0c13.082474 0 23.687912 -1.7675018 23.687912 -3.9478302l0 -176.00624l0 0c0 -2.1803246 10.605438 -3.9478283 23.687912 -3.9478283" fill-rule="nonzero"></path><path fill="#000000" fill-opacity="0.0" d="m29.003004 181.29729l95.869 0l0 49.40695l-95.869 0z" fill-rule="nonzero"></path><path fill="#000000" d="m54.02344 211.86076l-6.71875 0l0 -1.21875l2.640625 -2.625q0.640625 -0.640625 1.046875 -1.109375q0.40625 -0.46875 0.625 -0.859375q0.234375 -0.390625 0.3125 -0.734375q0.078125 -0.34375 0.078125 -0.734375q0 -0.375 -0.109375 -0.71875q-0.09375 -0.34375 -0.3125 -0.59375q-0.203125 -0.265625 -0.546875 -0.40625q-0.328125 -0.15625 -0.796875 -0.15625q-0.640625 0 -1.171875 0.296875q-0.53125 0.28125 -0.984375 0.75l-0.75 -0.90625q0.578125 -0.609375 1.328125 -0.96875q0.765625 -0.375 1.765625 -0.375q0.671875 0 1.234375 0.203125q0.5625 0.203125 0.96875 0.59375q0.40625 0.375 0.625 0.9375q0.21875 0.546875 0.21875 1.25q0 0.578125 -0.15625 1.078125q-0.15625 0.5 -0.46875 1.0q-0.3125 0.5 -0.796875 1.03125q-0.484375 0.53125 -1.140625 1.15625l-1.84375 1.8125l4.953125 0l0 1.296875zm8.546875 -3.265625q0 0.75 -0.328125 1.375q-0.328125 0.625 -0.90625 1.078125q-0.578125 0.453125 -1.359375 0.703125q-0.78125 0.25 -1.6875 0.25q-0.21875 0 -0.484375 -0.015625q-0.265625 0 -0.53125 -0.03125q-0.25 -0.015625 -0.5 -0.046875q-0.234375 -0.015625 -0.4375 -0.046875l0 -1.234375q0.421875 0.09375 0.96875 0.140625q0.546875 0.046875 1.09375 0.046875q0.625 0 1.125 -0.140625q0.5 -0.15625 0.84375 -0.421875q0.359375 -0.28125 0.546875 -0.671875q0.1875 -0.40625 0.1875 -0.890625q0 -0.953125 -0.6875 -1.390625q-0.671875 -0.4375 -1.953125 -0.4375l-1.9375 0l0 -5.21875l5.5 0l0 1.1875l-4.21875 0l0 2.875l0.890625 0q0.734375 0 1.421875 0.140625q0.703125 0.125 1.234375 0.453125q0.546875 0.328125 0.875 0.890625q0.34375 0.5625 0.34375 1.40625zm9.171879 0.03125q0 0.703125 -0.25 1.328125q-0.25 0.609375 -0.71875 1.0625q-0.46875 0.453125 -1.140625 0.71875q-0.65625 0.265625 -1.453125 0.265625q-0.84375 0 -1.5 -0.265625q-0.640625 -0.28125 -1.078125 -0.828125q-0.4375 -0.5625 -0.671875 -1.40625q-0.21875 -0.859375 -0.21875 -2.03125q0 -0.78125 0.09375 -1.515625q0.109375 -0.734375 0.34375 -1.375q0.234375 -0.65625 0.625 -1.1875q0.390625 -0.546875 0.96875 -0.921875q0.578125 -0.390625 1.359375 -0.609375q0.796875 -0.21875 1.84375 -0.21875l1.0 0l0 1.1875l-1.09375 0q-0.90625 0 -1.578125 0.21875q-0.671875 0.21875 -1.125 0.625q-0.453125 0.390625 -0.703125 0.953125q-0.234375 0.5625 -0.296875 1.265625l-0.03125 0.3125q0.484375 -0.28125 1.125 -0.453125q0.65625 -0.1875 1.40625 -0.1875q0.765625 0 1.34375 0.234375q0.59375 0.21875 0.96875 0.625q0.390625 0.40625 0.578125 0.96875q0.203125 0.5625 0.203125 1.234375zm-1.421875 0.078125q0 -0.46875 -0.109375 -0.84375q-0.109375 -0.375 -0.359375 -0.640625q-0.234375 -0.265625 -0.609375 -0.40625q-0.375 -0.140625 -0.890625 -0.140625q-0.296875 0 -0.609375 0.0625q-0.296875 0.046875 -0.59375 0.140625q-0.28125 0.09375 -0.546875 0.21875q-0.265625 0.125 -0.484375 0.265625q0 1.015625 0.140625 1.6875q0.140625 0.671875 0.40625 1.078125q0.28125 0.40625 0.6875 0.578125q0.40625 0.171875 0.9375 0.171875q0.453125 0 0.8125 -0.140625q0.375 -0.140625 0.640625 -0.421875q0.28125 -0.28125 0.421875 -0.6875q0.15625 -0.40625 0.15625 -0.921875zm19.203125 3.15625l-1.75 0l-3.828125 -5.015625l0 5.015625l-1.390625 0l0 -10.21875l1.390625 0l0 4.75l3.75 -4.75l1.640625 0l-4.03125 4.859375l4.21875 5.359375zm4.53125 -6.71875l-2.3125 0l0 -1.125l3.6875 0l0 6.703125l2.34375 0l0 1.140625l-6.296875 0l0 -1.140625l2.578125 0l0 -5.578125zm0.484375 -4.421875q0.21875 0 0.40625 0.09375q0.203125 0.078125 0.34375 0.234375q0.15625 0.140625 0.234375 0.328125q0.078125 0.1875 0.078125 0.421875q0 0.21875 -0.078125 0.421875q-0.078125 0.1875 -0.234375 0.34375q-0.140625 0.140625 -0.34375 0.21875q-0.1875 0.078125 -0.40625 0.078125q-0.234375 0 -0.4375 -0.078125q-0.1875 -0.078125 -0.328125 -0.21875q-0.140625 -0.15625 -0.234375 -0.34375q-0.078125 -0.203125 -0.078125 -0.421875q0 -0.234375 0.078125 -0.421875q0.09375 -0.1875 0.234375 -0.328125q0.140625 -0.15625 0.328125 -0.234375q0.203125 -0.09375 0.4375 -0.09375zm12.328125 8.078125q0 0.734375 -0.28125 1.3125q-0.28125 0.5625 -0.8125 0.953125q-0.53125 0.390625 -1.28125 0.59375q-0.734375 0.203125 -1.65625 0.203125l-2.671875 0l0 -10.21875l2.921875 0q3.421875 0 3.421875 2.484375q0 0.828125 -0.40625 1.421875q-0.390625 0.59375 -1.28125 0.890625q0.421875 0.078125 0.78125 0.265625q0.375 0.1875 0.65625 0.484375q0.28125 0.296875 0.4375 0.703125q0.171875 0.40625 0.171875 0.90625zm-1.8125 -4.484375q0 -0.3125 -0.09375 -0.578125q-0.09375 -0.28125 -0.328125 -0.484375q-0.234375 -0.203125 -0.640625 -0.3125q-0.390625 -0.125 -1.0 -0.125l-1.4375 0l0 3.203125l1.390625 0q0.484375 0 0.859375 -0.09375q0.390625 -0.109375 0.671875 -0.3125q0.28125 -0.21875 0.421875 -0.53125q0.15625 -0.328125 0.15625 -0.765625zm0.34375 4.53125q0 -0.390625 -0.171875 -0.703125q-0.15625 -0.3125 -0.46875 -0.515625q-0.3125 -0.21875 -0.765625 -0.328125q-0.453125 -0.125 -1.015625 -0.125l-1.421875 0l0 3.515625l1.46875 0q1.203125 0 1.78125 -0.4375q0.59375 -0.453125 0.59375 -1.40625z" fill-rule="nonzero"></path><path fill="#000000" fill-opacity="0.0" d="m478.00653 90.192l0 0c13.0824585 0 23.687897 1.7675018 23.687897 3.9478302l0 140.9595c0 2.1803284 10.605438 3.9478302 23.687897 3.9478302l0 0c-13.0824585 0 -23.687897 1.7675018 -23.687897 3.9478302l0 140.9595c0 2.1803284 -10.605438 3.947815 -23.687897 3.947815z" fill-rule="nonzero"></path><path fill="#000000" fill-opacity="0.0" d="m478.00653 90.192l0 0c13.0824585 0 23.687897 1.7675018 23.687897 3.9478302l0 140.9595c0 2.1803284 10.605438 3.9478302 23.687897 3.9478302l0 0c-13.0824585 0 -23.687897 1.7675018 -23.687897 3.9478302l0 140.9595c0 2.1803284 -10.605438 3.947815 -23.687897 3.947815" fill-rule="nonzero"></path><path stroke="#000000" stroke-width="2.0" stroke-linejoin="round" stroke-linecap="butt" d="m478.00653 90.192l0 0c13.0824585 0 23.687897 1.7675018 23.687897 3.9478302l0 140.9595c0 2.1803284 10.605438 3.9478302 23.687897 3.9478302l0 0c-13.0824585 0 -23.687897 1.7675018 -23.687897 3.9478302l0 140.9595c0 2.1803284 -10.605438 3.947815 -23.687897 3.947815" fill-rule="nonzero"></path><path fill="#ea9999" d="m548.5169 347.32886l259.48157 0l0 40.559906l-259.48157 0z" fill-rule="nonzero"></path><path stroke="#000000" stroke-width="2.0" stroke-linejoin="round" stroke-linecap="butt" d="m548.5169 347.32886l259.48157 0l0 40.559906l-259.48157 0z" fill-rule="nonzero"></path><path fill="#000000" d="m660.0858 373.4688l-1.578125 0l-1.515625 -3.265625q-0.171875 -0.375 -0.359375 -0.625q-0.171875 -0.25 -0.390625 -0.390625q-0.203125 -0.140625 -0.453125 -0.203125q-0.234375 -0.0625 -0.546875 -0.0625l-0.65625 0l0 4.546875l-1.390625 0l0 -10.21875l2.734375 0q0.890625 0 1.53125 0.203125q0.640625 0.1875 1.046875 0.546875q0.421875 0.34375 0.609375 0.84375q0.1875 0.5 0.1875 1.09375q0 0.484375 -0.140625 0.90625q-0.140625 0.421875 -0.421875 0.78125q-0.265625 0.34375 -0.6875 0.59375q-0.40625 0.25 -0.9375 0.375q0.4375 0.15625 0.734375 0.53125q0.296875 0.359375 0.609375 0.984375l1.625 3.359375zm-2.234375 -7.40625q0 -0.828125 -0.515625 -1.234375q-0.5 -0.40625 -1.4375 -0.40625l-1.3125 0l0 3.375l1.125 0q0.5 0 0.890625 -0.109375q0.390625 -0.109375 0.671875 -0.328125q0.28125 -0.234375 0.421875 -0.546875q0.15625 -0.328125 0.15625 -0.75zm10.1875 7.40625l-5.796875 0l0 -10.21875l5.796875 0l0 1.171875l-4.40625 0l0 3.171875l4.234375 0l0 1.171875l-4.234375 0l0 3.515625l4.40625 0l0 1.1875zm9.203125 -0.390625q-1.234375 0.515625 -2.578125 0.515625q-2.15625 0 -3.328125 -1.296875q-1.15625 -1.296875 -1.15625 -3.828125q0 -1.21875 0.3125 -2.203125q0.328125 -1.0 0.921875 -1.6875q0.59375 -0.703125 1.4375 -1.078125q0.84375 -0.375 1.890625 -0.375q0.71875 0 1.328125 0.125q0.609375 0.125 1.171875 0.375l0 1.359375q-0.5625 -0.296875 -1.15625 -0.453125q-0.59375 -0.171875 -1.296875 -0.171875q-0.71875 0 -1.296875 0.28125q-0.578125 0.265625 -0.984375 0.78125q-0.40625 0.5 -0.625 1.25q-0.21875 0.734375 -0.21875 1.671875q0 1.984375 0.796875 3.0q0.8125 1.0 2.359375 1.0q0.65625 0 1.25 -0.140625q0.609375 -0.15625 1.171875 -0.4375l0 1.3125zm9.390625 -4.78125q0 1.375 -0.328125 2.375q-0.328125 1.0 -0.875 1.65625q-0.546875 0.640625 -1.296875 0.96875q-0.734375 0.3125 -1.546875 0.3125q-0.984375 0 -1.71875 -0.359375q-0.734375 -0.359375 -1.21875 -1.03125q-0.46875 -0.671875 -0.703125 -1.625q-0.234375 -0.96875 -0.234375 -2.1875q0 -1.359375 0.3125 -2.359375q0.328125 -1.0 0.875 -1.640625q0.546875 -0.65625 1.28125 -0.96875q0.734375 -0.328125 1.5625 -0.328125q0.984375 0 1.703125 0.359375q0.734375 0.359375 1.21875 1.03125q0.484375 0.671875 0.71875 1.640625q0.25 0.953125 0.25 2.15625zm-1.453125 0.09375q0 -0.890625 -0.140625 -1.640625q-0.125 -0.75 -0.4375 -1.28125q-0.296875 -0.546875 -0.78125 -0.84375q-0.484375 -0.296875 -1.15625 -0.296875q-0.65625 0 -1.140625 0.328125q-0.46875 0.3125 -0.78125 0.859375q-0.296875 0.53125 -0.453125 1.265625q-0.140625 0.734375 -0.140625 1.546875q0 0.90625 0.140625 1.65625q0.140625 0.75 0.4375 1.28125q0.3125 0.53125 0.78125 0.828125q0.484375 0.296875 1.15625 0.296875q0.65625 0 1.125 -0.3125q0.484375 -0.3125 0.78125 -0.859375q0.3125 -0.546875 0.453125 -1.265625q0.15625 -0.734375 0.15625 -1.5625zm10.09375 5.078125l-1.578125 0l-1.515625 -3.265625q-0.171875 -0.375 -0.359375 -0.625q-0.171875 -0.25 -0.390625 -0.390625q-0.203125 -0.140625 -0.453125 -0.203125q-0.234375 -0.0625 -0.546875 -0.0625l-0.65625 0l0 4.546875l-1.390625 0l0 -10.21875l2.734375 0q0.890625 0 1.53125 0.203125q0.640625 0.1875 1.046875 0.546875q0.421875 0.34375 0.609375 0.84375q0.1875 0.5 0.1875 1.09375q0 0.484375 -0.140625 0.90625q-0.140625 0.421875 -0.421875 0.78125q-0.265625 0.34375 -0.6875 0.59375q-0.40625 0.25 -0.9375 0.375q0.4375 0.15625 0.734375 0.53125q0.296875 0.359375 0.609375 0.984375l1.625 3.359375zm-2.234375 -7.40625q0 -0.828125 -0.515625 -1.234375q-0.5 -0.40625 -1.4375 -0.40625l-1.3125 0l0 3.375l1.125 0q0.5 0 0.890625 -0.109375q0.390625 -0.109375 0.671875 -0.328125q0.28125 -0.234375 0.421875 -0.546875q0.15625 -0.328125 0.15625 -0.75zm11.046875 2.1875q0 0.734375 -0.125 1.40625q-0.109375 0.671875 -0.359375 1.25q-0.25 0.578125 -0.65625 1.046875q-0.390625 0.46875 -0.96875 0.8125q-0.578125 0.328125 -1.34375 0.515625q-0.765625 0.1875 -1.734375 0.1875l-2.1875 0l0 -10.21875l2.625 0q2.390625 0 3.5625 1.234375q1.1875 1.234375 1.1875 3.765625zm-1.46875 0.09375q0 -1.078125 -0.203125 -1.828125q-0.203125 -0.75 -0.625 -1.203125q-0.40625 -0.46875 -1.03125 -0.671875q-0.625 -0.21875 -1.46875 -0.21875l-1.1875 0l0 7.84375l1.03125 0q3.484375 0 3.484375 -3.921875z" fill-rule="nonzero"></path><path fill="#ea9999" d="m548.5169 254.24222l259.48157 0l0 93.089355l-259.48157 0z" fill-rule="nonzero"></path><path stroke="#000000" stroke-width="2.0" stroke-linejoin="round" stroke-linecap="butt" d="m548.5169 254.24222l259.48157 0l0 93.089355l-259.48157 0z" fill-rule="nonzero"></path><path fill="#000000" d="m660.0858 306.64688l-1.578125 0l-1.515625 -3.265625q-0.171875 -0.375 -0.359375 -0.625q-0.171875 -0.25 -0.390625 -0.390625q-0.203125 -0.140625 -0.453125 -0.203125q-0.234375 -0.0625 -0.546875 -0.0625l-0.65625 0l0 4.546875l-1.390625 0l0 -10.21875l2.734375 0q0.890625 0 1.53125 0.203125q0.640625 0.1875 1.046875 0.546875q0.421875 0.34375 0.609375 0.84375q0.1875 0.5 0.1875 1.09375q0 0.484375 -0.140625 0.90625q-0.140625 0.421875 -0.421875 0.78125q-0.265625 0.34375 -0.6875 0.59375q-0.40625 0.25 -0.9375 0.375q0.4375 0.15625 0.734375 0.53125q0.296875 0.359375 0.609375 0.984375l1.625 3.359375zm-2.234375 -7.40625q0 -0.828125 -0.515625 -1.234375q-0.5 -0.40625 -1.4375 -0.40625l-1.3125 0l0 3.375l1.125 0q0.5 0 0.890625 -0.109375q0.390625 -0.109375 0.671875 -0.328125q0.28125 -0.234375 0.421875 -0.546875q0.15625 -0.328125 0.15625 -0.75zm10.1875 7.40625l-5.796875 0l0 -10.21875l5.796875 0l0 1.171875l-4.40625 0l0 3.171875l4.234375 0l0 1.171875l-4.234375 0l0 3.515625l4.40625 0l0 1.1875zm9.203125 -0.390625q-1.234375 0.515625 -2.578125 0.515625q-2.15625 0 -3.328125 -1.296875q-1.15625 -1.296875 -1.15625 -3.828125q0 -1.21875 0.3125 -2.203125q0.328125 -1.0 0.921875 -1.6875q0.59375 -0.703125 1.4375 -1.078125q0.84375 -0.375 1.890625 -0.375q0.71875 0 1.328125 0.125q0.609375 0.125 1.171875 0.375l0 1.359375q-0.5625 -0.296875 -1.15625 -0.453125q-0.59375 -0.171875 -1.296875 -0.171875q-0.71875 0 -1.296875 0.28125q-0.578125 0.265625 -0.984375 0.78125q-0.40625 0.5 -0.625 1.25q-0.21875 0.734375 -0.21875 1.671875q0 1.984375 0.796875 3.0q0.8125 1.0 2.359375 1.0q0.65625 0 1.25 -0.140625q0.609375 -0.15625 1.171875 -0.4375l0 1.3125zm9.390625 -4.78125q0 1.375 -0.328125 2.375q-0.328125 1.0 -0.875 1.65625q-0.546875 0.640625 -1.296875 0.96875q-0.734375 0.3125 -1.546875 0.3125q-0.984375 0 -1.71875 -0.359375q-0.734375 -0.359375 -1.21875 -1.03125q-0.46875 -0.671875 -0.703125 -1.625q-0.234375 -0.96875 -0.234375 -2.1875q0 -1.359375 0.3125 -2.359375q0.328125 -1.0 0.875 -1.640625q0.546875 -0.65625 1.28125 -0.96875q0.734375 -0.328125 1.5625 -0.328125q0.984375 0 1.703125 0.359375q0.734375 0.359375 1.21875 1.03125q0.484375 0.671875 0.71875 1.640625q0.25 0.953125 0.25 2.15625zm-1.453125 0.09375q0 -0.890625 -0.140625 -1.640625q-0.125 -0.75 -0.4375 -1.28125q-0.296875 -0.546875 -0.78125 -0.84375q-0.484375 -0.296875 -1.15625 -0.296875q-0.65625 0 -1.140625 0.328125q-0.46875 0.3125 -0.78125 0.859375q-0.296875 0.53125 -0.453125 1.265625q-0.140625 0.734375 -0.140625 1.546875q0 0.90625 0.140625 1.65625q0.140625 0.75 0.4375 1.28125q0.3125 0.53125 0.78125 0.828125q0.484375 0.296875 1.15625 0.296875q0.65625 0 1.125 -0.3125q0.484375 -0.3125 0.78125 -0.859375q0.3125 -0.546875 0.453125 -1.265625q0.15625 -0.734375 0.15625 -1.5625zm10.09375 5.078125l-1.578125 0l-1.515625 -3.265625q-0.171875 -0.375 -0.359375 -0.625q-0.171875 -0.25 -0.390625 -0.390625q-0.203125 -0.140625 -0.453125 -0.203125q-0.234375 -0.0625 -0.546875 -0.0625l-0.65625 0l0 4.546875l-1.390625 0l0 -10.21875l2.734375 0q0.890625 0 1.53125 0.203125q0.640625 0.1875 1.046875 0.546875q0.421875 0.34375 0.609375 0.84375q0.1875 0.5 0.1875 1.09375q0 0.484375 -0.140625 0.90625q-0.140625 0.421875 -0.421875 0.78125q-0.265625 0.34375 -0.6875 0.59375q-0.40625 0.25 -0.9375 0.375q0.4375 0.15625 0.734375 0.53125q0.296875 0.359375 0.609375 0.984375l1.625 3.359375zm-2.234375 -7.40625q0 -0.828125 -0.515625 -1.234375q-0.5 -0.40625 -1.4375 -0.40625l-1.3125 0l0 3.375l1.125 0q0.5 0 0.890625 -0.109375q0.390625 -0.109375 0.671875 -0.328125q0.28125 -0.234375 0.421875 -0.546875q0.15625 -0.328125 0.15625 -0.75zm11.046875 2.1875q0 0.734375 -0.125 1.40625q-0.109375 0.671875 -0.359375 1.25q-0.25 0.578125 -0.65625 1.046875q-0.390625 0.46875 -0.96875 0.8125q-0.578125 0.328125 -1.34375 0.515625q-0.765625 0.1875 -1.734375 0.1875l-2.1875 0l0 -10.21875l2.625 0q2.390625 0 3.5625 1.234375q1.1875 1.234375 1.1875 3.765625zm-1.46875 0.09375q0 -1.078125 -0.203125 -1.828125q-0.203125 -0.75 -0.625 -1.203125q-0.40625 -0.46875 -1.03125 -0.671875q-0.625 -0.21875 -1.46875 -0.21875l-1.1875 0l0 7.84375l1.03125 0q3.484375 0 3.484375 -3.921875z" fill-rule="nonzero"></path><path fill="#ea9999" d="m548.5169 213.68231l259.48157 0l0 40.559906l-259.48157 0z" fill-rule="nonzero"></path><path stroke="#000000" stroke-width="2.0" stroke-linejoin="round" stroke-linecap="butt" d="m548.5169 213.68231l259.48157 0l0 40.559906l-259.48157 0z" fill-rule="nonzero"></path><path fill="#000000" d="m660.0858 239.82227l-1.578125 0l-1.515625 -3.265625q-0.171875 -0.375 -0.359375 -0.625q-0.171875 -0.25 -0.390625 -0.390625q-0.203125 -0.140625 -0.453125 -0.203125q-0.234375 -0.0625 -0.546875 -0.0625l-0.65625 0l0 4.546875l-1.390625 0l0 -10.21875l2.734375 0q0.890625 0 1.53125 0.203125q0.640625 0.1875 1.046875 0.546875q0.421875 0.34375 0.609375 0.84375q0.1875 0.5 0.1875 1.09375q0 0.484375 -0.140625 0.90625q-0.140625 0.421875 -0.421875 0.78125q-0.265625 0.34375 -0.6875 0.59375q-0.40625 0.25 -0.9375 0.375q0.4375 0.15625 0.734375 0.53125q0.296875 0.359375 0.609375 0.984375l1.625 3.359375zm-2.234375 -7.40625q0 -0.828125 -0.515625 -1.234375q-0.5 -0.40625 -1.4375 -0.40625l-1.3125 0l0 3.375l1.125 0q0.5 0 0.890625 -0.109375q0.390625 -0.109375 0.671875 -0.328125q0.28125 -0.234375 0.421875 -0.546875q0.15625 -0.328125 0.15625 -0.75zm10.1875 7.40625l-5.796875 0l0 -10.21875l5.796875 0l0 1.171875l-4.40625 0l0 3.171875l4.234375 0l0 1.171875l-4.234375 0l0 3.515625l4.40625 0l0 1.1875zm9.203125 -0.390625q-1.234375 0.515625 -2.578125 0.515625q-2.15625 0 -3.328125 -1.296875q-1.15625 -1.296875 -1.15625 -3.828125q0 -1.21875 0.3125 -2.203125q0.328125 -1.0 0.921875 -1.6875q0.59375 -0.703125 1.4375 -1.078125q0.84375 -0.375 1.890625 -0.375q0.71875 0 1.328125 0.125q0.609375 0.125 1.171875 0.375l0 1.359375q-0.5625 -0.296875 -1.15625 -0.453125q-0.59375 -0.171875 -1.296875 -0.171875q-0.71875 0 -1.296875 0.28125q-0.578125 0.265625 -0.984375 0.78125q-0.40625 0.5 -0.625 1.25q-0.21875 0.734375 -0.21875 1.671875q0 1.984375 0.796875 3.0q0.8125 1.0 2.359375 1.0q0.65625 0 1.25 -0.140625q0.609375 -0.15625 1.171875 -0.4375l0 1.3125zm9.390625 -4.78125q0 1.375 -0.328125 2.375q-0.328125 1.0 -0.875 1.65625q-0.546875 0.640625 -1.296875 0.96875q-0.734375 0.3125 -1.546875 0.3125q-0.984375 0 -1.71875 -0.359375q-0.734375 -0.359375 -1.21875 -1.03125q-0.46875 -0.671875 -0.703125 -1.625q-0.234375 -0.96875 -0.234375 -2.1875q0 -1.359375 0.3125 -2.359375q0.328125 -1.0 0.875 -1.640625q0.546875 -0.65625 1.28125 -0.96875q0.734375 -0.328125 1.5625 -0.328125q0.984375 0 1.703125 0.359375q0.734375 0.359375 1.21875 1.03125q0.484375 0.671875 0.71875 1.640625q0.25 0.953125 0.25 2.15625zm-1.453125 0.09375q0 -0.890625 -0.140625 -1.640625q-0.125 -0.75 -0.4375 -1.28125q-0.296875 -0.546875 -0.78125 -0.84375q-0.484375 -0.296875 -1.15625 -0.296875q-0.65625 0 -1.140625 0.328125q-0.46875 0.3125 -0.78125 0.859375q-0.296875 0.53125 -0.453125 1.265625q-0.140625 0.734375 -0.140625 1.546875q0 0.90625 0.140625 1.65625q0.140625 0.75 0.4375 1.28125q0.3125 0.53125 0.78125 0.828125q0.484375 0.296875 1.15625 0.296875q0.65625 0 1.125 -0.3125q0.484375 -0.3125 0.78125 -0.859375q0.3125 -0.546875 0.453125 -1.265625q0.15625 -0.734375 0.15625 -1.5625zm10.09375 5.078125l-1.578125 0l-1.515625 -3.265625q-0.171875 -0.375 -0.359375 -0.625q-0.171875 -0.25 -0.390625 -0.390625q-0.203125 -0.140625 -0.453125 -0.203125q-0.234375 -0.0625 -0.546875 -0.0625l-0.65625 0l0 4.546875l-1.390625 0l0 -10.21875l2.734375 0q0.890625 0 1.53125 0.203125q0.640625 0.1875 1.046875 0.546875q0.421875 0.34375 0.609375 0.84375q0.1875 0.5 0.1875 1.09375q0 0.484375 -0.140625 0.90625q-0.140625 0.421875 -0.421875 0.78125q-0.265625 0.34375 -0.6875 0.59375q-0.40625 0.25 -0.9375 0.375q0.4375 0.15625 0.734375 0.53125q0.296875 0.359375 0.609375 0.984375l1.625 3.359375zm-2.234375 -7.40625q0 -0.828125 -0.515625 -1.234375q-0.5 -0.40625 -1.4375 -0.40625l-1.3125 0l0 3.375l1.125 0q0.5 0 0.890625 -0.109375q0.390625 -0.109375 0.671875 -0.328125q0.28125 -0.234375 0.421875 -0.546875q0.15625 -0.328125 0.15625 -0.75zm11.046875 2.1875q0 0.734375 -0.125 1.40625q-0.109375 0.671875 -0.359375 1.25q-0.25 0.578125 -0.65625 1.046875q-0.390625 0.46875 -0.96875 0.8125q-0.578125 0.328125 -1.34375 0.515625q-0.765625 0.1875 -1.734375 0.1875l-2.1875 0l0 -10.21875l2.625 0q2.390625 0 3.5625 1.234375q1.1875 1.234375 1.1875 3.765625zm-1.46875 0.09375q0 -1.078125 -0.203125 -1.828125q-0.203125 -0.75 -0.625 -1.203125q-0.40625 -0.46875 -1.03125 -0.671875q-0.625 -0.21875 -1.46875 -0.21875l-1.1875 0l0 7.84375l1.03125 0q3.484375 0 3.484375 -3.921875z" fill-rule="nonzero"></path><path fill="#f4cccc" d="m548.5169 90.192l259.48157 0l0 123.50116l-259.48157 0z" fill-rule="nonzero"></path><path stroke="#000000" stroke-width="2.0" stroke-linejoin="round" stroke-linecap="butt" d="m548.5169 90.192l259.48157 0l0 123.50116l-259.48157 0z" fill-rule="nonzero"></path><path fill="#000000" d="m663.6405 157.80258l-5.796875 0l0 -10.21875l5.796875 0l0 1.171875l-4.40625 0l0 3.171875l4.234375 0l0 1.171875l-4.234375 0l0 3.515625l4.40625 0l0 1.1875zm9.84375 0l-1.359375 0l-0.203125 -6.375l-0.09375 -2.4375l-0.46875 1.421875l-1.515625 4.0625l-0.953125 0l-1.4375 -3.90625l-0.484375 -1.578125l-0.03125 2.546875l-0.171875 6.265625l-1.3125 0l0.5 -10.21875l1.640625 0l1.375 3.84375l0.453125 1.296875l0.421875 -1.296875l1.453125 -3.84375l1.6875 0l0.5 10.21875zm8.3125 -7.09375q0 0.625 -0.234375 1.25q-0.234375 0.609375 -0.734375 1.09375q-0.484375 0.484375 -1.25 0.78125q-0.765625 0.296875 -1.828125 0.296875l-1.265625 0l0 3.671875l-1.390625 0l0 -10.21875l2.875 0q0.765625 0 1.453125 0.171875q0.703125 0.171875 1.21875 0.546875q0.53125 0.375 0.84375 0.96875q0.3125 0.59375 0.3125 1.4375zm-1.4375 0.0625q0 -0.984375 -0.65625 -1.5q-0.640625 -0.53125 -1.796875 -0.53125l-1.421875 0l0 4.203125l1.296875 0q1.234375 0 1.90625 -0.53125q0.671875 -0.546875 0.671875 -1.640625zm10.421875 -2.0l-3.015625 0l0 9.03125l-1.40625 0l0 -9.03125l-3.03125 0l0 -1.1875l7.453125 0l0 1.1875zm9.46875 -1.1875l-3.6875 6.5625l0 3.65625l-1.40625 0l0 -3.6875l-3.703125 -6.53125l1.6875 0l2.03125 3.734375l0.75 1.5l0.6875 -1.359375l2.046875 -3.875l1.59375 0z" fill-rule="nonzero"></path></g></svg>

