<?xml version="1.0" standalone="yes"?>
<!--
   Licensed to the Apache Software Foundation (ASF) under one or more
   contributor license agreements.  See the NOTICE file distributed with
   this work for additional information regarding copyright ownership.
   The ASF licenses this file to You under the Apache License, Version 2.0
   (the "License"); you may not use this file except in compliance with
   the License.  You may obtain a copy of the License at

       http://www.apache.org/licenses/LICENSE-2.0

   Unless required by applicable law or agreed to in writing, software
   distributed under the License is distributed on an "AS IS" BASIS,
   WITHOUT WARRANTIES OR CONDITIONS OF ANY KIND, either express or implied.
   See the License for the specific language governing permissions and
   limitations under the License.
  -->

<svg xmlns="http://www.w3.org/2000/svg" xmlns:xlink="http://www.w3.org/1999/xlink" width="540" height="640"><g transform="translate(-7.7777777777777715 -7.7777777777777715)"><path d="M127.78 627.78h400v-60h-400z" stroke="#000" stroke-width="2" fill="#ccc"/><use xlink:href="#a" transform="matrix(1,0,0,1,132.77777777777777,572.7777777777778) translate(164.05 28.6)"/><path d="M127.78 567.78h400v-60h-400z" stroke="#000" stroke-width="2" fill="#ccc"/><use xlink:href="#a" transform="matrix(1,0,0,1,132.77777777777777,512.7777777777778) translate(164.05 28.6)"/><path d="M127.78 87.78h400v-60h-400z" stroke="#000" stroke-width="2" fill="#cfe2f3"/><use xlink:href="#b" transform="matrix(1,0,0,1,132.77777777777777,32.77777777777778) translate(157.1 28.6)"/><path d="M127.78 147.78h400v-60h-400z" stroke="#000" stroke-width="2" fill="#f4cccc"/><use xlink:href="#c" transform="matrix(1,0,0,1,132.77777777777777,92.77777777777777) translate(151.625 28.6)"/><path d="M127.78 207.78h400v-60h-400z" stroke="#000" stroke-width="2" fill="#cfe2f3"/><use xlink:href="#b" transform="matrix(1,0,0,1,132.77777777777777,152.77777777777777) translate(157.1 28.6)"/><path d="M127.78 267.78h400v-60h-400z" stroke="#000" stroke-width="2" fill="#f4cccc"/><use xlink:href="#c" transform="matrix(1,0,0,1,132.77777777777777,212.77777777777777) translate(151.625 28.6)"/><path d="M127.78 327.78h400v-60h-400z" stroke="#000" stroke-width="2" fill="#f4cccc"/><use xlink:href="#c" transform="matrix(1,0,0,1,132.77777777777777,272.77777777777777) translate(151.625 28.6)"/><path d="M127.78 507.78h400v-60h-400z" stroke="#000" stroke-width="2" fill="#f4cccc"/><use xlink:href="#c" transform="matrix(1,0,0,1,132.77777777777777,452.77777777777777) translate(151.625 28.6)"/><path d="M127.78 387.78h400v-60h-400z" stroke="#000" stroke-width="2" fill="#fff"/><use xlink:href="#d" transform="matrix(1,0,0,1,132.77777777777777,332.77777777777777) translate(187.5 28.6)"/><path d="M27.78 27.78v120h80v-120z" fill="none"/><path d="M107.78 147.78c-4.14 0-7.5-3.36-7.5-7.5v-45c0-4.14-3.36-7.5-7.5-7.5 4.14 0 7.5-3.36 7.5-7.5v-45c0-4.14 3.36-7.5 7.5-7.5" stroke="#000" stroke-width="2" fill="none"/><use xlink:href="#e" transform="matrix(1,0,0,1,32.77777777777777,32.77777777777777) translate(6.049999999999997 58.6)"/><path d="M127.78 447.78h400v-60h-400z" stroke="#000" stroke-width="2" fill="#fff"/><use xlink:href="#d" transform="matrix(1,0,0,1,132.77777777777777,392.77777777777777) translate(187.5 28.6)"/><defs><path d="M24 0v-248h195v40H76v63h132v40H76v65h150V0H24" id="f"/><path d="M230 0l2-204L168 0h-37L68-204 70 0H24v-248h70l56 185 57-185h69V0h-46" id="g"/><path d="M24-248c93 1 206-16 204 79-1 75-69 88-152 82V0H24v-248zm52 121c47 0 100 7 100-41 0-47-54-39-100-39v80" id="h"/><path d="M136-208V0H84v-208H4v-40h212v40h-80" id="i"/><path d="M146-102V0H94v-102L6-248h54l60 105 60-105h54" id="j"/><g id="a"><use transform="matrix(0.05,0,0,0.05,0,0)" xlink:href="#f"/><use transform="matrix(0.05,0,0,0.05,12,0)" xlink:href="#g"/><use transform="matrix(0.05,0,0,0.05,26.950000000000003,0)" xlink:href="#h"/><use transform="matrix(0.05,0,0,0.05,38.95,0)" xlink:href="#i"/><use transform="matrix(0.05,0,0,0.05,49.900000000000006,0)" xlink:href="#j"/></g><path d="M186 0v-106H76V0H24v-248h52v99h110v-99h50V0h-50" id="k"/><path d="M199 0l-22-63H83L61 0H9l90-248h61L250 0h-51zm-33-102l-36-108c-10 38-24 72-36 108h72" id="l"/><path d="M24-248c120-7 223 5 221 122C244-46 201 0 124 0H24v-248zM76-40c74 7 117-18 117-86 0-67-45-88-117-82v168" id="m"/><path d="M240-174c0 40-23 61-54 70L253 0h-59l-57-94H76V0H24v-248c93 4 217-23 216 74zM76-134c48-2 112 12 112-38 0-48-66-32-112-35v73" id="n"/><g id="b"><use transform="matrix(0.05,0,0,0.05,0,0)" xlink:href="#k"/><use transform="matrix(0.05,0,0,0.05,12.950000000000001,0)" xlink:href="#f"/><use transform="matrix(0.05,0,0,0.05,24.950000000000003,0)" xlink:href="#l"/><use transform="matrix(0.05,0,0,0.05,37.900000000000006,0)" xlink:href="#m"/><use transform="matrix(0.05,0,0,0.05,50.85000000000001,0)" xlink:href="#f"/><use transform="matrix(0.05,0,0,0.05,62.85,0)" xlink:href="#n"/></g><path d="M67-125c0 53 21 87 73 88 37 1 54-22 65-47l45 17C233-25 199 4 140 4 58 4 20-42 15-125 8-235 124-281 211-232c18 10 29 29 36 50l-46 12c-8-25-30-41-62-41-52 0-71 34-72 86" id="o"/><path d="M140-251c80 0 125 45 125 126S219 4 139 4C58 4 15-44 15-125s44-126 125-126zm-1 214c52 0 73-35 73-88 0-50-21-86-72-86-52 0-73 35-73 86s22 88 72 88" id="p"/><path d="M175 0L67-191c6 58 2 128 3 191H24v-248h59L193-55c-6-58-2-129-3-193h46V0h-61" id="q"/><g id="c"><use transform="matrix(0.05,0,0,0.05,0,0)" xlink:href="#o"/><use transform="matrix(0.05,0,0,0.05,12.950000000000001,0)" xlink:href="#p"/><use transform="matrix(0.05,0,0,0.05,26.950000000000003,0)" xlink:href="#q"/><use transform="matrix(0.05,0,0,0.05,39.900000000000006,0)" xlink:href="#i"/><use transform="matrix(0.05,0,0,0.05,50.85000000000001,0)" xlink:href="#f"/><use transform="matrix(0.05,0,0,0.05,62.85,0)" xlink:href="#q"/><use transform="matrix(0.05,0,0,0.05,75.80000000000001,0)" xlink:href="#i"/></g><path d="M24 0v-54h51V0H24" id="r"/><g id="d"><use transform="matrix(0.05,0,0,0.05,0,0)" xlink:href="#r"/><use transform="matrix(0.05,0,0,0.05,5,0)" xlink:href="#r"/><use transform="matrix(0.05,0,0,0.05,10,0)" xlink:href="#r"/></g><path d="M30 0v-248h187v28H63v79h144v27H63v87h162V0H30" id="s"/><path d="M117-194c89-4 53 116 60 194h-32v-121c0-31-8-49-39-48C34-167 62-67 57 0H25l-1-190h30c1 10-1 24 2 32 11-22 29-35 61-36" id="t"/><path d="M59-47c-2 24 18 29 38 22v24C64 9 27 4 27-40v-127H5v-23h24l9-43h21v43h35v23H59v120" id="u"/><path d="M114-163C36-179 61-72 57 0H25l-1-190h30c1 12-1 29 2 39 6-27 23-49 58-41v29" id="v"/><path d="M179-190L93 31C79 59 56 82 12 73V49c39 6 53-20 64-50L1-190h34L92-34l54-156h33" id="w"/><g id="e"><use transform="matrix(0.05,0,0,0.05,0,0)" xlink:href="#s"/><use transform="matrix(0.05,0,0,0.05,12,0)" xlink:href="#t"/><use transform="matrix(0.05,0,0,0.05,22,0)" xlink:href="#u"/><use transform="matrix(0.05,0,0,0.05,27,0)" xlink:href="#v"/><use transform="matrix(0.05,0,0,0.05,32.95,0)" xlink:href="#w"/></g></defs></g></svg>